<svg aria-hidden="true" style="position: absolute; width: 0; height: 0; overflow: hidden;" version="1.1" xmlns="http://www.w3.org/2000/svg" xmlns:xlink="http://www.w3.org/1999/xlink">
<defs>
<symbol id="clock" viewBox="0 0 32 32">
<title>clock</title>
<path d="M16 32c-4.274 0-8.292-1.664-11.314-4.686s-4.686-7.040-4.686-11.314 1.664-8.292 4.686-11.314c3.022-3.022 7.040-4.686 11.314-4.686s8.292 1.664 11.314 4.686c3.022 3.022 4.686 7.040 4.686 11.314s-1.664 8.292-4.686 11.314c-3.022 3.022-7.040 4.686-11.314 4.686zM16 1.875c-3.773 0-7.32 1.469-9.988 4.138s-4.138 6.214-4.138 9.988 1.469 7.32 4.138 9.988 6.214 4.137 9.988 4.137 7.32-1.469 9.988-4.137 4.137-6.214 4.137-9.988-1.469-7.32-4.137-9.988-6.214-4.138-9.988-4.138z"></path>
<path d="M15.063 3.752h1.875v2.502h-1.875zM22.225 8.447l1.769-1.769 1.326 1.325-1.769 1.769zM25.746 15.063h2.502v1.875h-2.502zM22.224 23.554l1.325-1.326 1.769 1.769-1.325 1.326zM15.063 25.746h1.875v2.502h-1.875zM6.673 23.996l1.769-1.769 1.326 1.326-1.769 1.769zM3.752 15.063h2.502v1.875h-2.502zM6.675 8.002l1.326-1.326 1.769 1.769-1.325 1.326zM22.619 16.938h-7.556v-7.556h1.875v5.681h5.681z"></path>
</symbol>
<symbol id="compass" viewBox="0 0 32 32">
<title>compass</title>
<path d="M17.455 7.15v-1.601c0.911-0.514 1.516-1.475 1.516-2.577 0-0.001 0-0.002 0-0.003v0c0-1.637-1.324-2.969-2.961-2.969s-2.981 1.331-2.981 2.969c0 1.075 0.614 2.056 1.489 2.581v1.6c-6.125 0.729-10.984 6.004-10.984 12.382 0 6.875 5.601 12.469 12.477 12.469s12.456-5.594 12.456-12.469c0-6.378-4.824-11.652-11.011-12.381zM13.986 2.969c0-1.12 0.911-2.031 2.031-2.031s2.031 0.911 2.031 2.031c0 0.536-0.212 1.038-0.571 1.41-0.081-0.742-0.704-1.315-1.461-1.316h-0c-0.757 0.001-1.38 0.574-1.46 1.31l-0.001 0.007c-0.353-0.365-0.57-0.862-0.571-1.41v-0zM16.517 4.531v2.544c-0.125-0.008-0.353-0.013-0.531-0.013s-0.344 0.004-0.531 0.013v-2.544c0.014-0.282 0.247-0.506 0.531-0.506s0.517 0.224 0.531 0.505l0 0.001zM16.017 31.063c-6.358 0-11.531-5.173-11.531-11.531s5.173-11.531 11.531-11.531 11.531 5.173 11.531 11.531-5.172 11.531-11.531 11.531z"></path>
<path d="M16.017 9.063c-5.773 0-10.469 4.696-10.469 10.469s4.696 10.469 10.469 10.469c2.757 0 5.359-1.063 7.328-2.992l-0.656-0.669c-1.71 1.684-4.058 2.724-6.65 2.724-0.008 0-0.016 0-0.023-0h0.001c-5.256 0-9.531-4.276-9.531-9.531s4.276-9.531 9.531-9.531 9.531 4.276 9.531 9.531c0 1.861-0.536 3.663-1.55 5.213l0.784 0.512c1.067-1.61 1.703-3.586 1.703-5.711 0-0.005 0-0.010 0-0.015v0.001c0-5.773-4.696-10.469-10.469-10.469z"></path>
<path d="M15.518 11h0.937v1h-0.938zM15.518 27h0.937v1h-0.938zM23.517 19.063h1v0.938h-1zM7.518 19.063h1v0.938h-1zM22.017 20v-0.938h-2.432l2.309-5.424-5.439 2.325v-2.401h-0.938v2.803l-1.408 0.611-3.304-3.311-0.659 0.662 3.313 3.311-0.608 1.424h-2.834v0.938h2.432l-2.34 5.424 5.408-2.325v2.464h0.937v-2.865l1.44-0.611 3.319 3.311 0.667-0.663-3.309-3.311 0.613-1.424h2.834zM14.375 17.888l4.591-1.967-2.294 2.294c-0.19-0.096-0.413-0.152-0.65-0.152-0.001 0-0.002 0-0.003 0h0c-0.001 0-0.003 0-0.004 0-0.404 0-0.77 0.164-1.034 0.43l-0 0c-0.266 0.264-0.431 0.63-0.431 1.035 0 0.001 0 0.003 0 0.004v-0c0 0.231 0.053 0.453 0.153 0.653l-2.294 2.294 1.967-4.59zM16.55 19.531c0 0.142-0.056 0.275-0.156 0.376-0.096 0.096-0.228 0.156-0.374 0.156-0 0-0.001 0-0.001 0h0c-0.143 0-0.276-0.055-0.376-0.156s-0.156-0.234-0.156-0.376 0.056-0.275 0.156-0.376c0.1-0.1 0.233-0.156 0.375-0.156s0.275 0.055 0.376 0.156c0.096 0.096 0.156 0.228 0.156 0.375 0 0 0 0.001 0 0.001v-0zM17.661 21.174l-4.591 1.967 2.294-2.294c0.19 0.096 0.413 0.152 0.65 0.152 0.001 0 0.002 0 0.003 0h-0c0.392 0 0.761-0.152 1.039-0.43 0.266-0.264 0.43-0.63 0.43-1.034 0-0.002 0-0.003 0-0.005v0c0-0.231-0.053-0.453-0.152-0.653l2.294-2.294-1.967 4.59z"></path>
</symbol>
<symbol id="email" viewBox="0 0 32 32">
<title>email</title>
<path d="M29.188 3.813h-26.375c-1.549 0-2.813 1.263-2.813 2.813v18.75c0 1.545 1.258 2.813 2.813 2.813h26.375c1.545 0 2.813-1.258 2.813-2.813v-18.75c0-1.545-1.258-2.813-2.813-2.813zM28.799 5.688l-12.74 12.739-12.85-12.739h25.591zM1.875 24.987v-17.983l9.030 8.952-9.030 9.031zM3.201 26.313l9.036-9.036 3.166 3.139c0.169 0.168 0.403 0.272 0.66 0.272 0.259 0 0.493-0.105 0.663-0.274l3.087-3.088 8.987 8.988h-25.599zM30.125 24.987l-8.987-8.987 8.987-8.987v17.974z"></path>
</symbol>
<symbol id="forward" viewBox="0 0 32 32">
<title>forward</title>
<path d="M31.566 15.176l-16-11c-0.158-0.109-0.354-0.175-0.565-0.175-0.552 0-1 0.447-1.001 0.999v7.723l-12.434-8.547c-0.158-0.109-0.354-0.175-0.565-0.175-0.552 0-1 0.447-1.001 0.999v22c0 0.552 0.448 1 1 1 0.212 0 0.408-0.066 0.57-0.178l-0.003 0.002 12.434-8.548v7.724c0 0.552 0.448 1 1 1 0.211 0 0.408-0.066 0.569-0.178l-0.003 0.002 16-11c0.263-0.183 0.433-0.484 0.433-0.824s-0.17-0.641-0.43-0.822l-0.003-0.002zM2 25.099v-18.197l12 8.25v1.698l-12 8.25zM16 25.099v-18.197l13.235 9.098z"></path>
</symbol>
<symbol id="heart" viewBox="0 0 32 32">
<title>heart</title>
<path d="M16 30.22c-0 0-0.001 0-0.001 0-0.475 0-0.908-0.176-1.239-0.467l0.002 0.002c-0.747-0.662-1.931-1.685-3.121-2.7l-0.516-0.43-0.006-0.004c-3.223-2.747-6.008-5.121-7.944-7.458-2.167-2.612-3.175-5.089-3.175-7.796 0-2.629 0.902-5.054 2.539-6.831 1.656-1.796 3.929-2.786 6.401-2.786 1.848 0 3.539 0.584 5.028 1.736 0.751 0.581 1.433 1.293 2.032 2.123 0.6-0.83 1.281-1.541 2.033-2.123 1.489-1.152 3.181-1.736 5.027-1.736 2.471 0 4.744 0.989 6.401 2.786 1.637 1.775 2.538 4.201 2.538 6.831 0 2.706-1.008 5.183-3.174 7.796-1.937 2.337-4.721 4.709-7.944 7.456-1.705 1.444-2.892 2.469-4.071 3.501l0.426-0.365c-0.328 0.288-0.762 0.464-1.236 0.464-0 0-0 0-0.001 0h0zM8.939 3.624c-1.942 0-3.725 0.775-5.023 2.182-1.316 1.428-2.041 3.403-2.041 5.56 0 2.276 0.846 4.312 2.742 6.6 1.833 2.212 4.56 4.536 7.718 7.227l0.006 0.005c1.718 1.455 2.907 2.483 4.091 3.518l-0.434-0.372c0.667-0.591 1.861-1.621 3.060-2.644l0.609-0.507c3.157-2.691 5.884-5.014 7.717-7.226 1.897-2.289 2.742-4.325 2.742-6.6 0-2.158-0.725-4.133-2.042-5.561-1.297-1.407-3.081-2.183-5.023-2.183-1.422 0-2.728 0.452-3.881 1.344-1.027 0.795-1.744 1.8-2.163 2.503-0.216 0.361-0.596 0.578-1.017 0.578s-0.8-0.216-1.016-0.577c-0.419-0.703-1.136-1.708-2.163-2.503-1.153-0.891-2.459-1.344-3.881-1.344z"></path>
</symbol>
<symbol id="safe-box" viewBox="0 0 32 32">
<title>safe-box</title>
<path d="M30.313 0h-28.625c-0.931 0.001-1.686 0.756-1.688 1.687v25.49c0.001 0.931 0.756 1.686 1.687 1.688h1.125v1.698c0.001 0.793 0.644 1.436 1.437 1.438h5.418c0.793-0.001 1.436-0.644 1.438-1.437v-1.698h9.79v1.698c0.001 0.793 0.644 1.436 1.437 1.438h5.418c0.793-0.001 1.436-0.644 1.438-1.437v-1.698h1.125c0.931-0.001 1.686-0.756 1.688-1.687v-25.49c-0.001-0.931-0.756-1.686-1.687-1.688h-0zM31.125 20.317h-5.418v-3.043h5.418zM31.125 11.59h-5.418v-3.043h5.418zM28.625 7.673h-3.355c-0.242 0-0.438 0.196-0.438 0.437v0 3.918c0 0.242 0.196 0.438 0.438 0.438v0h3.355v3.935h-3.355c-0.242 0-0.438 0.196-0.438 0.438v0 3.918c0 0.242 0.196 0.438 0.438 0.438v0h3.355v4.297h-25.25v-22.115h25.25zM29.5 16.4v-3.935h1.625v3.935zM10.23 30.563c0 0.311-0.252 0.563-0.563 0.563v0h-5.418c-0.311 0-0.563-0.252-0.563-0.563v0-1.698h6.543zM28.313 30.563c0 0.311-0.252 0.563-0.563 0.563v0h-5.418c-0.311 0-0.563-0.252-0.563-0.563v0-1.698h6.543zM30.313 27.99h-28.625c-0.449 0-0.813-0.364-0.813-0.813v0-25.49c0-0.449 0.364-0.813 0.813-0.813v0h28.625c0.449 0 0.813 0.364 0.813 0.813v0 5.985h-1.625v-4.735c0-0.242-0.196-0.438-0.438-0.438v0h-26.125c-0.242 0-0.438 0.196-0.438 0.438v0 22.99c0 0.242 0.196 0.438 0.438 0.438v0h26.125c0.242 0 0.438-0.196 0.438-0.438v0-4.735h1.625v5.985c0 0.449-0.364 0.813-0.813 0.813v0z"></path>
<path d="M14.105 16.575c1.183 0 2.143-0.959 2.143-2.143s-0.959-2.143-2.143-2.143c-1.183 0-2.143 0.959-2.143 2.143v0c0.001 1.183 0.96 2.141 2.142 2.143h0zM14.105 13.168c0.7 0 1.268 0.567 1.268 1.268s-0.567 1.268-1.268 1.268c-0.7 0-1.268-0.567-1.268-1.268 0-0.001 0-0.002 0-0.003v0c0-0.7 0.567-1.268 1.268-1.268v0z"></path>
<path d="M7.063 15.87h2.63c0.086 0.259 0.18 0.478 0.29 0.688l-0.012-0.026-1.863 1.863c-0.215 0.215-0.348 0.512-0.348 0.84s0.133 0.625 0.348 0.84v0l0.355 0.352c0.215 0.214 0.511 0.347 0.839 0.347s0.624-0.133 0.839-0.347l1.862-1.862c0.185 0.097 0.405 0.191 0.632 0.268l0.033 0.010v2.633c0 0.656 0.532 1.188 1.188 1.188v0h0.5c0.656 0 1.188-0.532 1.188-1.188v0-2.633c0.26-0.085 0.479-0.179 0.688-0.287l-0.026 0.012 1.863 1.86c0.215 0.214 0.511 0.347 0.839 0.347s0.624-0.133 0.839-0.347l-0 0 0.355-0.352c0.215-0.215 0.348-0.512 0.348-0.84s-0.133-0.625-0.348-0.84l-1.863-1.863c0.098-0.184 0.191-0.403 0.268-0.63l0.009-0.032h2.63c0.656 0 1.188-0.532 1.188-1.188v0-0.5c0-0.656-0.532-1.188-1.188-1.188v0h-2.63c-0.085-0.259-0.178-0.478-0.287-0.688l0.012 0.026 1.86-1.863c0.215-0.215 0.348-0.512 0.348-0.84s-0.133-0.625-0.348-0.84v0l-0.355-0.352c-0.215-0.214-0.511-0.347-0.839-0.347s-0.624 0.133-0.839 0.347l-1.862 1.862c-0.184-0.097-0.403-0.191-0.63-0.268l-0.033-0.010v-2.633c-0.001-0.655-0.532-1.186-1.187-1.188h-0.5c-0.656 0-1.188 0.532-1.188 1.188v0 2.635c-0.26 0.085-0.48 0.178-0.691 0.287l0.026-0.012-1.863-1.86c-0.215-0.214-0.511-0.347-0.839-0.347s-0.624 0.133-0.839 0.347l0-0-0.355 0.352c-0.215 0.215-0.348 0.512-0.348 0.84s0.133 0.625 0.348 0.84l1.863 1.863c-0.097 0.184-0.19 0.403-0.266 0.63l-0.009 0.033h-2.635c-0.655 0.001-1.186 0.532-1.188 1.187v0.5c0.001 0.655 0.532 1.186 1.187 1.188h0zM14.105 10.665c2.081 0 3.768 1.687 3.768 3.768s-1.687 3.768-3.768 3.768c-2.081 0-3.768-1.687-3.768-3.768v0c0.001-2.080 1.687-3.766 3.767-3.768h0zM9.523 19.81c-0.057 0.057-0.135 0.092-0.221 0.092s-0.165-0.035-0.221-0.092v0l-0.352-0.355c-0.056-0.056-0.091-0.134-0.091-0.22s0.035-0.164 0.091-0.22l1.725-1.725c0.235 0.299 0.496 0.56 0.785 0.787l0.010 0.008zM14.668 21.475c0 0.173-0.14 0.313-0.313 0.313v0h-0.5c-0.173 0-0.313-0.14-0.313-0.313v0-2.438c0.169 0.022 0.364 0.034 0.563 0.034s0.394-0.012 0.585-0.036l-0.023 0.002zM19.48 19.015c0.057 0.057 0.092 0.135 0.092 0.221s-0.035 0.165-0.092 0.221v0l-0.352 0.35c-0.057 0.057-0.135 0.092-0.221 0.092s-0.165-0.035-0.221-0.092v0l-1.725-1.725c0.298-0.235 0.56-0.495 0.788-0.783l0.007-0.010zM21.145 13.87c0.173 0 0.313 0.14 0.313 0.313v0 0.5c0 0.173-0.14 0.313-0.313 0.313v0h-2.438c0.022-0.169 0.034-0.364 0.034-0.563s-0.012-0.394-0.037-0.585l0.002 0.023zM18.685 9.055c0.057-0.057 0.135-0.092 0.221-0.092s0.165 0.035 0.221 0.092v0l0.355 0.355c0.056 0.056 0.091 0.134 0.091 0.22s-0.035 0.164-0.091 0.22l-1.725 1.725c-0.236-0.299-0.498-0.56-0.787-0.787l-0.010-0.008zM13.543 7.39c0-0.173 0.14-0.313 0.313-0.313v0h0.5c0.173 0 0.313 0.14 0.313 0.313v0 2.438c-0.169-0.022-0.364-0.034-0.563-0.034s-0.394 0.012-0.585 0.036l0.023-0.002zM8.725 9.85c-0.057-0.057-0.092-0.135-0.092-0.221s0.035-0.165 0.092-0.221v0l0.352-0.352c0.057-0.057 0.135-0.092 0.221-0.092s0.165 0.035 0.221 0.092v0l1.725 1.725c-0.299 0.235-0.56 0.496-0.787 0.785l-0.008 0.010zM6.75 14.182c0-0.173 0.14-0.313 0.313-0.313v0h2.438c-0.022 0.169-0.034 0.364-0.034 0.563s0.012 0.394 0.036 0.585l-0.002-0.023h-2.438c-0.173 0-0.313-0.14-0.313-0.313v0z"></path>
</symbol>
<symbol id="setting" viewBox="0 0 32 32">
<title>setting</title>
<path d="M32 18.564v-5.129l-3.747-0.625c-0.323-1.221-0.78-2.291-1.368-3.274l0.032 0.057 2.21-3.094-3.627-3.626-3.094 2.21c-0.926-0.557-1.995-1.014-3.129-1.317l-0.087-0.020-0.626-3.747h-5.13l-0.624 3.747c-1.221 0.322-2.291 0.78-3.273 1.368l0.057-0.032-3.094-2.21-3.628 3.626 2.211 3.094c-0.556 0.926-1.014 1.996-1.317 3.129l-0.020 0.088-3.747 0.625v5.129l3.747 0.625c0.322 1.221 0.78 2.291 1.368 3.274l-0.032-0.057-2.21 3.094 3.628 3.626 3.094-2.21c0.926 0.557 1.995 1.014 3.129 1.317l0.088 0.020 0.625 3.747h5.13l0.624-3.747c1.221-0.322 2.291-0.78 3.273-1.368l-0.057 0.032 3.094 2.21 3.627-3.626-2.21-3.094c0.556-0.926 1.014-1.996 1.317-3.129l0.020-0.088 3.747-0.625zM27.057 18.46c-0.31 1.37-0.829 2.579-1.529 3.66l0.027-0.044-0.242 0.38 2.072 2.9-2.030 2.030-2.901-2.072-0.38 0.242c-1.037 0.673-2.246 1.192-3.54 1.487l-0.075 0.015-0.439 0.098-0.586 3.512h-2.87l-0.585-3.512-0.439-0.098c-1.37-0.31-2.579-0.829-3.66-1.529l0.044 0.027-0.379-0.242-2.901 2.072-2.029-2.030 2.072-2.9-0.242-0.38c-0.673-1.037-1.192-2.246-1.487-3.54l-0.014-0.075-0.098-0.439-3.512-0.585v-2.871l3.512-0.585 0.098-0.439c0.31-1.37 0.829-2.579 1.529-3.66l-0.027 0.044 0.242-0.38-2.072-2.9 2.029-2.030 2.901 2.072 0.38-0.242c1.037-0.673 2.246-1.192 3.54-1.487l0.075-0.014 0.439-0.098 0.585-3.512h2.87l0.585 3.512 0.439 0.098c1.37 0.31 2.579 0.829 3.66 1.529l-0.044-0.027 0.379 0.242 2.901-2.072 2.030 2.030-2.072 2.9 0.242 0.38c0.673 1.037 1.192 2.246 1.487 3.54l0.015 0.075 0.098 0.439 3.512 0.585v2.871l-3.512 0.585-0.097 0.439z"></path>
<path d="M16 9.333c-3.676 0-6.667 2.991-6.667 6.667s2.99 6.667 6.667 6.667 6.667-2.991 6.667-6.667-2.991-6.667-6.667-6.667zM16 21.333c-2.941 0-5.333-2.393-5.333-5.333s2.393-5.333 5.333-5.333 5.333 2.393 5.333 5.333-2.393 5.333-5.333 5.333z"></path>
</symbol>
<symbol id="shopping-cart" viewBox="0 0 32 32">
<title>shopping-cart</title>
<path d="M10.31 20.688h17.002c0.426-0 0.786-0.284 0.9-0.673l0.002-0.007 3.75-13.125c0.023-0.077 0.036-0.166 0.036-0.258 0-0.518-0.42-0.937-0.937-0.938h-22.914l-0.671-3.016c-0.096-0.423-0.469-0.734-0.915-0.734h-5.625c-0.518 0-0.938 0.42-0.938 0.938s0.42 0.938 0.938 0.938v0h4.873l3.385 15.232c-1.005 0.444-1.694 1.432-1.696 2.58v0c0 1.551 1.262 2.813 2.813 2.813h17c0.518 0 0.938-0.42 0.938-0.938s-0.42-0.938-0.938-0.938v0h-17c-0.517 0-0.938-0.421-0.938-0.938s0.419-0.936 0.935-0.938zM29.819 7.563l-3.214 11.25h-15.541l-2.5-11.25zM9.375 27.25c0 1.551 1.262 2.813 2.813 2.813s2.813-1.262 2.813-2.813-1.262-2.813-2.813-2.813-2.813 1.262-2.813 2.813zM12.188 26.313c0.517 0 0.938 0.421 0.938 0.938s-0.421 0.938-0.938 0.938-0.938-0.421-0.938-0.938 0.421-0.938 0.938-0.938zM22.625 27.25c0 1.551 1.262 2.813 2.813 2.813s2.813-1.262 2.813-2.813-1.262-2.813-2.813-2.813-2.813 1.262-2.813 2.813zM25.438 26.313c0.517 0 0.938 0.421 0.938 0.938s-0.421 0.938-0.938 0.938-0.938-0.421-0.938-0.938 0.421-0.938 0.938-0.938z"></path>
</symbol>
<symbol id="shuffle" viewBox="0 0 32 32">
<title>shuffle</title>
<path d="M27.998 22h-3.635c-0.003 0-0.006 0-0.009 0-1.317 0-2.515-0.511-3.406-1.346l0.003 0.003-4.988-4.655 4.99-4.657c0.888-0.832 2.085-1.344 3.402-1.344 0.003 0 0.007 0 0.010 0h3.634v2l4-3-4-2.999v2h-3.635c-1.78 0-3.476 0.668-4.776 1.883l-11.54 10.771c-0.889 0.834-2.088 1.346-3.407 1.346-0.001 0-0.001 0-0.002 0h-4.638v1.996l4.639 0.002c1.776 0 3.47-0.668 4.773-1.883l5.086-4.747 5.088 4.749c1.243 1.166 2.921 1.882 4.766 1.882 0.004 0 0.007 0 0.011 0h3.634v2l4-3-4-3 0.001 2zM4.639 10.002c1.268 0 2.478 0.476 3.407 1.344l3.522 3.287 1.465-1.367-3.621-3.38c-1.242-1.166-2.919-1.882-4.763-1.882-0.003 0-0.005 0-0.008 0l-4.641 0.002v1.996h4.633c0.003 0 0.005 0.002 0.007 0.002z"></path>
</symbol>
<symbol id="tel" viewBox="0 0 32 32">
<title>tel</title>
<path d="M29.433 21.004c-1.959 0-3.883-0.307-5.706-0.908-0.908-0.31-1.943-0.070-2.537 0.534l-3.598 2.717c-4.172-2.227-6.742-4.797-8.94-8.938l2.637-3.505c0.469-0.468 0.759-1.116 0.759-1.831 0-0.282-0.045-0.554-0.129-0.808l0.005 0.018c-0.579-1.699-0.913-3.655-0.913-5.69 0-0.009 0-0.018 0-0.027v0.001c0-1.416-1.152-2.567-2.567-2.567h-5.878c-1.417 0.002-2.565 1.151-2.567 2.567v0c0 16.229 13.203 29.433 29.433 29.433 1.417-0.002 2.566-1.15 2.567-2.567v-5.861c-0.002-1.417-1.151-2.565-2.567-2.567h-0zM30.223 29.433c-0 0.436-0.354 0.79-0.79 0.79h-0c-15.25 0-27.655-12.406-27.655-27.655 0-0.436 0.354-0.79 0.79-0.79h5.877c0.436 0 0.79 0.354 0.79 0.79v0c0 2.15 0.338 4.261 0.998 6.26 0.092 0.295 0.018 0.6-0.281 0.912l-3.056 4.047c-0.112 0.147-0.18 0.334-0.18 0.536 0 0.147 0.036 0.285 0.099 0.407l-0.002-0.005c2.494 4.902 5.525 7.932 10.461 10.462 0.118 0.062 0.258 0.099 0.406 0.099 0.202 0 0.389-0.068 0.538-0.182l-0.002 0.002 4.139-3.136c0.142-0.142 0.338-0.229 0.554-0.229 0.090 0 0.177 0.015 0.257 0.043l-0.006-0.002c1.864 0.635 4.011 1.002 6.244 1.002 0.010 0 0.020 0 0.030-0h-0.002c0.436 0 0.79 0.354 0.79 0.79v5.86z"></path>
</symbol>
<symbol id="world" viewBox="0 0 32 32">
<title>world</title>
<path d="M16 0c-8.837 0-16 7.163-16 16s7.163 16 16 16 16-7.163 16-16c-0.010-8.832-7.168-15.99-16-16zM29.838 21.605l-4.551 0.785c0.496-1.747 0.799-3.758 0.837-5.835l0-0.022h4.795c-0.060 1.741-0.427 3.458-1.082 5.072zM1.080 16.533h4.795c0.035 1.98 0.317 3.947 0.837 5.857l-4.551-0.785c-0.625-1.495-1.017-3.229-1.081-5.046l-0.001-0.026zM2.162 10.395l4.551-0.785c-0.496 1.747-0.799 3.758-0.837 5.835l-0 0.022h-4.795c0.060-1.741 0.427-3.458 1.082-5.072zM16.533 8.563c1.917 0.025 3.828 0.199 5.717 0.522l1.883 0.325c0.551 1.805 0.886 3.884 0.925 6.036l0 0.021h-8.525zM22.433 8.034c-1.949-0.333-3.922-0.513-5.899-0.537v-6.4c3.057 0.293 5.713 3.093 7.219 7.167zM15.467 7.497c-2.103 0.027-4.141 0.221-6.126 0.57l0.227-0.033-1.32 0.229c1.505-4.076 4.161-6.876 7.219-7.169zM9.75 9.085c1.703-0.306 3.678-0.495 5.692-0.522l0.025-0v6.903h-8.525c0.039-2.172 0.374-4.251 0.967-6.219l-0.042 0.162zM6.941 16.533h8.525v6.903c-2.039-0.027-4.014-0.216-5.938-0.554l0.22 0.032-1.883-0.325c-0.551-1.805-0.886-3.884-0.925-6.036l-0-0.021zM9.568 23.966c1.949 0.333 3.921 0.514 5.899 0.54v6.4c-3.057-0.293-5.713-3.093-7.219-7.167zM16.533 24.506c1.977-0.026 3.949-0.207 5.899-0.54l1.32-0.229c-1.505 4.076-4.161 6.876-7.219 7.169zM22.25 22.915c-1.703 0.306-3.678 0.495-5.692 0.522l-0.025 0v-6.903h8.525c-0.039 2.172-0.374 4.251-0.967 6.219l0.042-0.162zM26.125 15.467c-0.035-1.98-0.316-3.947-0.837-5.857l4.551 0.785c0.625 1.495 1.017 3.229 1.081 5.046l0.001 0.026zM29.298 9.219l-4.361-0.753c-0.827-2.645-2.297-4.889-4.23-6.628l-0.013-0.012c3.771 1.284 6.798 3.917 8.565 7.31l0.039 0.083zM11.307 1.826c-1.947 1.751-3.417 3.995-4.215 6.536l-0.028 0.104-4.361 0.753c1.807-3.476 4.833-6.109 8.499-7.362l0.106-0.031zM2.702 22.781l4.361 0.752c0.827 2.645 2.297 4.889 4.23 6.628l0.013 0.012c-3.771-1.284-6.798-3.917-8.565-7.31l-0.039-0.083zM20.693 30.175c1.947-1.751 3.417-3.995 4.215-6.537l0.028-0.104 4.361-0.753c-1.807 3.476-4.833 6.109-8.499 7.362l-0.106 0.031z"></path>
</symbol>
</defs>
</svg>
