<svg aria-hidden="true" style="position:absolute;width:0;height:0" xmlns="http://www.w3.org/2000/svg" overflow="hidden"><defs><symbol id="clock" viewBox="0 0 32 32"><path d="M16 32c-4.274 0-8.292-1.664-11.314-4.686S0 20.274 0 16 1.664 7.708 4.686 4.686C7.708 1.664 11.726 0 16 0s8.292 1.664 11.314 4.686C30.336 7.708 32 11.726 32 16s-1.664 8.292-4.686 11.314A15.895 15.895 0 0116 32zm0-30.125c-3.773 0-7.32 1.469-9.988 4.138s-4.138 6.214-4.138 9.988 1.469 7.32 4.138 9.988 6.214 4.137 9.988 4.137 7.32-1.469 9.988-4.137 4.137-6.214 4.137-9.988-1.469-7.32-4.137-9.988S19.774 1.875 16 1.875z"/><path d="M15.063 3.752h1.875v2.502h-1.875zm7.162 4.695l1.769-1.769 1.326 1.325-1.769 1.769zm3.521 6.616h2.502v1.875h-2.502zm-3.522 8.491l1.325-1.326 1.769 1.769-1.325 1.326zm-7.161 2.192h1.875v2.502h-1.875zm-8.39-1.75l1.769-1.769 1.326 1.326-1.769 1.769zm-2.921-8.933h2.502v1.875H3.752zm2.923-7.061l1.326-1.326L9.77 8.445 8.445 9.771zm15.944 8.936h-7.556V9.382h1.875v5.681h5.681z"/></symbol><symbol id="compass" viewBox="0 0 32 32"><path d="M17.455 7.15V5.549a2.953 2.953 0 001.516-2.577v-.003C18.971 1.332 17.647 0 16.01 0s-2.981 1.331-2.981 2.969c0 1.075.614 2.056 1.489 2.581v1.6c-6.125.729-10.984 6.004-10.984 12.382 0 6.875 5.601 12.469 12.477 12.469s12.456-5.594 12.456-12.469c0-6.378-4.824-11.652-11.011-12.381zm-3.469-4.181c0-1.12.911-2.031 2.031-2.031s2.031.911 2.031 2.031a2.03 2.03 0 01-.571 1.41 1.473 1.473 0 00-1.461-1.316 1.47 1.47 0 00-1.46 1.31l-.001.007a2.027 2.027 0 01-.571-1.41zm2.531 1.562v2.544a10.063 10.063 0 00-1.062 0V4.531a.533.533 0 011.062-.001v.001zm-.5 26.532c-6.358 0-11.531-5.173-11.531-11.531S9.659 8.001 16.017 8.001s11.531 5.173 11.531 11.531-5.172 11.531-11.531 11.531z"/><path d="M16.017 9.063c-5.773 0-10.469 4.696-10.469 10.469s4.696 10.469 10.469 10.469c2.757 0 5.359-1.063 7.328-2.992l-.656-.669a9.447 9.447 0 01-6.65 2.724h-.023.001c-5.256 0-9.531-4.276-9.531-9.531s4.276-9.531 9.531-9.531 9.531 4.276 9.531 9.531a9.495 9.495 0 01-1.55 5.213l.784.512a10.335 10.335 0 001.703-5.711v-.015.001c0-5.773-4.696-10.469-10.469-10.469z"/><path d="M15.518 11h.937v1h-.938zm0 16h.937v1h-.938zm7.999-7.937h1v.938h-1zm-15.999 0h1v.938h-1zM22.017 20v-.938h-2.432l2.309-5.424-5.439 2.325v-2.401h-.938v2.803l-1.408.611-3.304-3.311-.659.662 3.313 3.311-.608 1.424h-2.834V20h2.432l-2.34 5.424 5.408-2.325v2.464h.937v-2.865l1.44-.611 3.319 3.311.667-.663-3.309-3.311.613-1.424h2.834zm-7.642-2.112l4.591-1.967-2.294 2.294a1.444 1.444 0 00-.65-.152h-.007c-.404 0-.77.164-1.034.43-.266.264-.431.63-.431 1.035v.004c0 .231.053.453.153.653l-2.294 2.294 1.967-4.59zm2.175 1.643a.531.531 0 01-.53.532h-.001a.531.531 0 11.531-.533v.001zm1.111 1.643l-4.591 1.967 2.294-2.294c.19.096.413.152.65.152h.003a1.46 1.46 0 001.039-.43c.266-.264.43-.63.43-1.034v-.005c0-.231-.053-.453-.152-.653l2.294-2.294-1.967 4.59z"/></symbol><symbol id="email" viewBox="0 0 32 32"><path d="M29.188 3.813H2.813A2.818 2.818 0 000 6.626v18.75a2.818 2.818 0 002.813 2.813h26.375a2.818 2.818 0 002.813-2.813V6.626a2.818 2.818 0 00-2.813-2.813zm-.389 1.875l-12.74 12.739L3.209 5.688H28.8zM1.875 24.987V7.004l9.03 8.952-9.03 9.031zm1.326 1.326l9.036-9.036 3.166 3.139a.935.935 0 001.323-.002l3.087-3.088 8.987 8.988H3.201zm26.924-1.326L21.138 16l8.987-8.987v17.974z"/></symbol><symbol id="forward" viewBox="0 0 32 32"><path d="M31.566 15.176l-16-11A1.001 1.001 0 0014 5v7.723L1.566 4.176A1.001 1.001 0 000 5v22a1 1 0 001.57.822l-.003.002 12.434-8.548V27a1 1 0 001.569.822l-.003.002 16-11a1.002 1.002 0 00.003-1.646l-.003-.002zM2 25.099V6.902l12 8.25v1.698L2 25.1zm14 0V6.902L29.235 16z"/></symbol><symbol id="heart" viewBox="0 0 32 32"><path d="M16 30.22h-.001c-.475 0-.908-.176-1.239-.467l.002.002a245.585 245.585 0 00-3.121-2.7l-.516-.43-.006-.004c-3.223-2.747-6.008-5.121-7.944-7.458C1.008 16.551 0 14.074 0 11.367c0-2.629.902-5.054 2.539-6.831C4.195 2.74 6.468 1.75 8.94 1.75c1.848 0 3.539.584 5.028 1.736A10.258 10.258 0 0116 5.609c.6-.83 1.281-1.541 2.033-2.123 1.489-1.152 3.181-1.736 5.027-1.736 2.471 0 4.744.989 6.401 2.786 1.637 1.775 2.538 4.201 2.538 6.831 0 2.706-1.008 5.183-3.174 7.796-1.937 2.337-4.721 4.709-7.944 7.456a311.383 311.383 0 00-4.071 3.501l.426-.365a1.87 1.87 0 01-1.236.464h-.001zM8.939 3.624c-1.942 0-3.725.775-5.023 2.182-1.316 1.428-2.041 3.403-2.041 5.56 0 2.276.846 4.312 2.742 6.6 1.833 2.212 4.56 4.536 7.718 7.227l.006.005a323.55 323.55 0 014.091 3.518l-.434-.372c.667-.591 1.861-1.621 3.06-2.644l.609-.507c3.157-2.691 5.884-5.014 7.717-7.226 1.897-2.289 2.742-4.325 2.742-6.6 0-2.158-.725-4.133-2.042-5.561-1.297-1.407-3.081-2.183-5.023-2.183-1.422 0-2.728.452-3.881 1.344-1.027.795-1.744 1.8-2.163 2.503-.216.361-.596.578-1.017.578s-.8-.216-1.016-.577c-.419-.703-1.136-1.708-2.163-2.503-1.153-.891-2.459-1.344-3.881-1.344z"/></symbol><symbol id="safe-box" viewBox="0 0 32 32"><path d="M30.313 0H1.688A1.69 1.69 0 000 1.687v25.49a1.69 1.69 0 001.687 1.688h1.125v1.698a1.44 1.44 0 001.437 1.438h5.418a1.44 1.44 0 001.438-1.437v-1.698h9.79v1.698a1.44 1.44 0 001.437 1.438h5.418a1.44 1.44 0 001.438-1.437v-1.698h1.125a1.69 1.69 0 001.688-1.687V1.69A1.69 1.69 0 0030.314.002zm.812 20.317h-5.418v-3.043h5.418zm0-8.727h-5.418V8.547h5.418zm-2.5-3.917H25.27a.438.438 0 00-.438.437v3.918c0 .242.196.438.438.438h3.355v3.935H25.27a.438.438 0 00-.438.438v3.918c0 .242.196.438.438.438h3.355v4.297H3.375V3.377h25.25zM29.5 16.4v-3.935h1.625V16.4zM10.23 30.563a.563.563 0 01-.563.563H4.249a.563.563 0 01-.563-.563v-1.698h6.543zm18.083 0a.563.563 0 01-.563.563h-5.418a.563.563 0 01-.563-.563v-1.698h6.543zm2-2.573H1.688a.813.813 0 01-.813-.813V1.687c0-.449.364-.813.813-.813h28.625c.449 0 .813.364.813.813v5.985h-1.625V2.937a.438.438 0 00-.438-.438H2.938a.438.438 0 00-.438.438v22.99c0 .242.196.438.438.438h26.125a.438.438 0 00.438-.438v-4.735h1.625v5.985a.813.813 0 01-.813.813z"/><path d="M14.105 16.575a2.143 2.143 0 10-2.143-2.143 2.145 2.145 0 002.142 2.143zm0-3.407a1.268 1.268 0 11-1.268 1.268v-.003c0-.7.567-1.268 1.268-1.268z"/><path d="M7.063 15.87h2.63c.086.259.18.478.29.688l-.012-.026-1.863 1.863a1.184 1.184 0 000 1.68l.355.352a1.185 1.185 0 001.678 0l1.862-1.862c.185.097.405.191.632.268l.033.01v2.633c0 .656.532 1.188 1.188 1.188h.5c.656 0 1.188-.532 1.188-1.188v-2.633c.26-.085.479-.179.688-.287l-.026.012 1.863 1.86a1.185 1.185 0 001.678 0l.355-.352a1.184 1.184 0 000-1.68l-1.863-1.863c.098-.184.191-.403.268-.63l.009-.032h2.63c.656 0 1.188-.532 1.188-1.188v-.5c0-.656-.532-1.188-1.188-1.188h-2.63a4.518 4.518 0 00-.287-.688l.012.026 1.86-1.863a1.184 1.184 0 000-1.68l-.355-.352a1.185 1.185 0 00-1.678 0L16.206 10.3a4.435 4.435 0 00-.63-.268l-.033-.01V7.389a1.19 1.19 0 00-1.187-1.188h-.5c-.656 0-1.188.532-1.188 1.188v2.635c-.26.085-.48.178-.691.287l.026-.012-1.863-1.86a1.185 1.185 0 00-1.678 0l-.355.352a1.184 1.184 0 000 1.68l1.863 1.863c-.097.184-.19.403-.266.63l-.009.033H7.06a1.19 1.19 0 00-1.188 1.187v.5a1.19 1.19 0 001.187 1.188zm7.042-5.205a3.768 3.768 0 11-3.768 3.768 3.77 3.77 0 013.767-3.768zM9.523 19.81a.311.311 0 01-.442 0l-.352-.355a.31.31 0 010-.44l1.725-1.725c.235.299.496.56.785.787l.01.008zm5.145 1.665c0 .173-.14.313-.313.313h-.5a.313.313 0 01-.313-.313v-2.438a4.688 4.688 0 001.148-.002l-.023.002zm4.812-2.46a.311.311 0 010 .442l-.352.35a.311.311 0 01-.442 0l-1.725-1.725c.298-.235.56-.495.788-.783l.007-.01zm1.665-5.145c.173 0 .313.14.313.313v.5c0 .173-.14.313-.313.313h-2.438a4.504 4.504 0 00-.003-1.148l.002.023zm-2.46-4.815a.311.311 0 01.442 0l.355.355a.31.31 0 010 .44l-1.725 1.725a4.688 4.688 0 00-.787-.787l-.01-.008zM13.543 7.39c0-.173.14-.313.313-.313h.5c.173 0 .313.14.313.313v2.438a4.688 4.688 0 00-1.148.002l.023-.002zM8.725 9.85a.311.311 0 010-.442l.352-.352a.311.311 0 01.442 0l1.725 1.725a4.64 4.64 0 00-.787.785l-.008.01zM6.75 14.182c0-.173.14-.313.313-.313h2.438a4.688 4.688 0 00.002 1.148l-.002-.023H7.063a.313.313 0 01-.313-.313z"/></symbol><symbol id="setting" viewBox="0 0 32 32"><path d="M32 18.564v-5.129l-3.747-.625a12.536 12.536 0 00-1.368-3.274l.032.057 2.21-3.094L25.5 2.873l-3.094 2.21a12.258 12.258 0 00-3.129-1.317l-.087-.02-.626-3.747h-5.13l-.624 3.747a12.48 12.48 0 00-3.273 1.368l.057-.032L6.5 2.872 2.872 6.498l2.211 3.094a12.308 12.308 0 00-1.317 3.129l-.02.088-3.747.625v5.129l3.747.625c.322 1.221.78 2.291 1.368 3.274l-.032-.057-2.21 3.094L6.5 29.125l3.094-2.21a12.258 12.258 0 003.129 1.317l.088.02.625 3.747h5.13l.624-3.747a12.48 12.48 0 003.273-1.368l-.057.032 3.094 2.21 3.627-3.626-2.21-3.094a12.308 12.308 0 001.317-3.129l.02-.088 3.747-.625zm-4.943-.104a11.212 11.212 0 01-1.529 3.66l.027-.044-.242.38 2.072 2.9-2.03 2.03-2.901-2.072-.38.242a11.05 11.05 0 01-3.54 1.487l-.075.015-.439.098-.586 3.512h-2.87l-.585-3.512-.439-.098a11.212 11.212 0 01-3.66-1.529l.044.027-.379-.242-2.901 2.072-2.029-2.03 2.072-2.9-.242-.38a11.05 11.05 0 01-1.487-3.54l-.014-.075-.098-.439-3.512-.585v-2.871l3.512-.585.098-.439c.31-1.37.829-2.579 1.529-3.66l-.027.044.242-.38-2.072-2.9 2.029-2.03 2.901 2.072.38-.242a11.05 11.05 0 013.54-1.487l.075-.014.439-.098.585-3.512h2.87l.585 3.512.439.098c1.37.31 2.579.829 3.66 1.529l-.044-.027.379.242 2.901-2.072 2.03 2.03-2.072 2.9.242.38a11.05 11.05 0 011.487 3.54l.015.075.098.439 3.512.585v2.871l-3.512.585-.097.439z"/><path d="M16 9.333c-3.676 0-6.667 2.991-6.667 6.667s2.99 6.667 6.667 6.667 6.667-2.991 6.667-6.667S19.676 9.333 16 9.333zm0 12c-2.941 0-5.333-2.393-5.333-5.333S13.06 10.667 16 10.667 21.333 13.06 21.333 16 18.94 21.333 16 21.333z"/></symbol><symbol id="shopping-cart" viewBox="0 0 32 32"><path d="M10.31 20.688h17.002a.938.938 0 00.9-.673l.002-.007 3.75-13.125a.938.938 0 00-.901-1.196H8.149l-.671-3.016a.938.938 0 00-.915-.734H.938a.938.938 0 000 1.876h4.873l3.385 15.232a2.824 2.824 0 00-1.696 2.58 2.816 2.816 0 002.813 2.813h17a.938.938 0 000-1.876h-17a.939.939 0 01-.003-1.876zM29.819 7.563l-3.214 11.25H11.064l-2.5-11.25zM9.375 27.25c0 1.551 1.262 2.813 2.813 2.813s2.813-1.262 2.813-2.813-1.262-2.813-2.813-2.813-2.813 1.262-2.813 2.813zm2.813-.937c.517 0 .938.421.938.938s-.421.938-.938.938-.938-.421-.938-.938.421-.938.938-.938zm10.437.937c0 1.551 1.262 2.813 2.813 2.813s2.813-1.262 2.813-2.813-1.262-2.813-2.813-2.813-2.813 1.262-2.813 2.813zm2.813-.937c.517 0 .938.421.938.938s-.421.938-.938.938-.938-.421-.938-.938.421-.938.938-.938z"/></symbol><symbol id="shuffle" viewBox="0 0 32 32"><path d="M27.998 22h-3.644a4.965 4.965 0 01-3.406-1.346l.003.003-4.988-4.655 4.99-4.657a4.961 4.961 0 013.402-1.344h3.644v2l4-3-4-2.999v2h-3.635a6.97 6.97 0 00-4.776 1.883L8.048 20.656a4.964 4.964 0 01-3.407 1.346H.001v1.996L4.64 24c1.776 0 3.47-.668 4.773-1.883l5.086-4.747 5.088 4.749a6.946 6.946 0 004.766 1.882h3.645v2l4-3-4-3 .001 2zM4.639 10.002c1.268 0 2.478.476 3.407 1.344l3.522 3.287 1.465-1.367-3.621-3.38a6.939 6.939 0 00-4.763-1.882h-.008L0 8.006v1.996h4.633l.007.002z"/></symbol><symbol id="tel" viewBox="0 0 32 32"><path d="M29.433 21.004c-1.959 0-3.883-.307-5.706-.908-.908-.31-1.943-.07-2.537.534l-3.598 2.717c-4.172-2.227-6.742-4.797-8.94-8.938l2.637-3.505a2.58 2.58 0 00.63-2.639l.005.018c-.579-1.699-.913-3.655-.913-5.69v-.027.001A2.57 2.57 0 008.444 0H2.566A2.571 2.571 0 00-.001 2.567C-.001 18.796 13.202 32 29.432 32a2.57 2.57 0 002.567-2.567v-5.861a2.571 2.571 0 00-2.567-2.567zm.79 8.429a.79.79 0 01-.79.79c-15.25 0-27.655-12.406-27.655-27.655a.79.79 0 01.79-.79h5.877a.79.79 0 01.79.79c0 2.15.338 4.261.998 6.26.092.295.018.6-.281.912l-3.056 4.047a.884.884 0 00-.081.943l-.002-.005c2.494 4.902 5.525 7.932 10.461 10.462a.884.884 0 00.944-.083l-.002.002 4.139-3.136a.78.78 0 01.811-.186l-.006-.002c1.864.635 4.011 1.002 6.244 1.002h.03-.002a.79.79 0 01.79.79v5.86z"/></symbol><symbol id="world" viewBox="0 0 32 32"><path d="M16 0C7.163 0 0 7.163 0 16s7.163 16 16 16 16-7.163 16-16C31.99 7.168 24.832.01 16 0zm13.838 21.605l-4.551.785c.496-1.747.799-3.758.837-5.835v-.022h4.795a14.85 14.85 0 01-1.082 5.072zM1.08 16.533h4.795c.035 1.98.317 3.947.837 5.857l-4.551-.785a14.514 14.514 0 01-1.081-5.046l-.001-.026zm1.082-6.138l4.551-.785c-.496 1.747-.799 3.758-.837 5.835v.022H1.081a14.85 14.85 0 011.082-5.072zm14.371-1.832c1.917.025 3.828.199 5.717.522l1.883.325c.551 1.805.886 3.884.925 6.036v.021h-8.525zm5.9-.529a37.753 37.753 0 00-5.899-.537v-6.4c3.057.293 5.713 3.093 7.219 7.167zm-6.966-.537a38.115 38.115 0 00-6.126.57l.227-.033-1.32.229c1.505-4.076 4.161-6.876 7.219-7.169zM9.75 9.085c1.703-.306 3.678-.495 5.692-.522h.025v6.903H6.942c.039-2.172.374-4.251.967-6.219l-.042.162zm-2.809 7.448h8.525v6.903a37.065 37.065 0 01-5.938-.554l.22.032-1.883-.325c-.551-1.805-.886-3.884-.925-6.036v-.021zm2.627 7.433c1.949.333 3.921.514 5.899.54v6.4c-3.057-.293-5.713-3.093-7.219-7.167zm6.965.54a38.011 38.011 0 005.899-.54l1.32-.229c-1.505 4.076-4.161 6.876-7.219 7.169zm5.717-1.591c-1.703.306-3.678.495-5.692.522h-.025v-6.903h8.525a22.918 22.918 0 01-.967 6.219l.042-.162zm3.875-7.448a23.856 23.856 0 00-.837-5.857l4.551.785a14.514 14.514 0 011.081 5.046l.001.026zm3.173-6.248l-4.361-.753c-.827-2.645-2.297-4.889-4.23-6.628l-.013-.012c3.771 1.284 6.798 3.917 8.565 7.31l.039.083zM11.307 1.826a14.727 14.727 0 00-4.215 6.536l-.028.104-4.361.753C4.51 5.743 7.536 3.11 11.202 1.857l.106-.031zM2.702 22.781l4.361.752c.827 2.645 2.297 4.889 4.23 6.628l.013.012c-3.771-1.284-6.798-3.917-8.565-7.31l-.039-.083zm17.991 7.394a14.724 14.724 0 004.215-6.537l.028-.104 4.361-.753c-1.807 3.476-4.833 6.109-8.499 7.362l-.106.031z"/></symbol></defs></svg>